<svg width="22" height="22" viewBox="0 0 22 22" fill="none" xmlns="http://www.w3.org/2000/svg">
<path fill-rule="evenodd" clip-rule="evenodd" d="M11 22C17.0751 22 22 17.0751 22 11C22 4.92487 17.0751 0 11 0C4.92487 0 0 4.92487 0 11C0 17.0751 4.92487 22 11 22ZM8.14241 7.04543L8.14875 7.12235C8.19271 7.42514 8.45516 7.66405 8.76741 7.67043L13.3522 7.7639L6.73966 14.3765C6.50534 14.6108 6.51326 14.9986 6.75734 15.2427C7.00141 15.4868 7.38923 15.4947 7.62354 15.2604L14.2353 8.64863L14.3296 13.2326L14.3359 13.3095C14.3799 13.6123 14.6423 13.8512 14.9546 13.8576C15.2929 13.8645 15.5615 13.5959 15.5546 13.2576L15.4309 7.19417L15.4258 7.12702L15.4108 7.04947L15.3899 6.98419L15.3595 6.91646L15.3227 6.8547L15.2747 6.79184L15.2426 6.75741L15.1875 6.70814L15.1099 6.65506L15.0483 6.62352L14.9758 6.59637L14.8962 6.57761L14.8428 6.57103L14.8059 6.56917L8.74241 6.44543L8.66568 6.44863C8.36444 6.48026 8.13604 6.73317 8.14241 7.04543Z" fill="#35638B"/>
</svg>
