<svg width="23" height="22" viewBox="0 0 23 22" fill="none" xmlns="http://www.w3.org/2000/svg">
<path fill-rule="evenodd" clip-rule="evenodd" d="M11.7796 22C17.842 22 22.7565 17.0751 22.7565 11C22.7565 4.92487 17.842 0 11.7796 0C5.71726 0 0.802734 4.92487 0.802734 11C0.802734 17.0751 5.71726 22 11.7796 22ZM12.6528 4.875C12.6528 4.39175 12.2619 4 11.7797 4C11.2975 4 10.9065 4.39175 10.9065 4.875V10.125H5.66755C5.18532 10.125 4.79439 10.5168 4.79439 11C4.79439 11.4832 5.18532 11.875 5.66755 11.875H10.9065V17.125C10.9065 17.6082 11.2975 18 11.7797 18C12.2619 18 12.6528 17.6082 12.6528 17.125V11.875H17.8918C18.3741 11.875 18.765 11.4832 18.765 11C18.765 10.5168 18.3741 10.125 17.8918 10.125H12.6528V4.875Z" fill="#35638B"/>
</svg>
